<?xml version="1.0" encoding="UTF-8" standalone="no"?><!-- Generator: Gravit.io --><svg xmlns="http://www.w3.org/2000/svg" xmlns:xlink="http://www.w3.org/1999/xlink" style="isolation:isolate" viewBox="6 1 54 62" width="54pt" height="62pt"><defs><clipPath id="_clipPath_APs6S6H3KIS0mYvzAh1DXg5S9wdjcw09"><rect width="64" height="64"/></clipPath></defs><g clip-path="url(#_clipPath_APs6S6H3KIS0mYvzAh1DXg5S9wdjcw09)"><path d=" M 33 32 C 41.522 32 48.429 25.061 48.429 16.5 C 48.429 7.939 41.522 1 33 1 C 24.478 1 17.571 7.939 17.571 16.5 C 17.571 25.061 24.478 32 33 32 Z  M 43.8 35.875 L 41.787 35.875 C 39.111 37.11 36.134 37.813 33 37.813 C 29.866 37.813 26.901 37.11 24.213 35.875 L 22.2 35.875 C 13.256 35.875 6 43.165 6 52.15 L 6 57.188 C 6 60.396 8.592 63 11.786 63 L 54.214 63 C 57.408 63 60 60.396 60 57.188 L 60 52.15 C 60 43.165 52.744 35.875 43.8 35.875 Z " fill="rgb(67,160,175)"/></g><defs><clipPath id="_clipPath_quSqWgwTceUBSXv3KQEKqmxIWBi4LW03"><rect width="64" height="64"/></clipPath></defs><g clip-path="url(#_clipPath_quSqWgwTceUBSXv3KQEKqmxIWBi4LW03)"/></svg>